<?xml version="1.0"?>
<svg width="1440" height="1440" xmlns="http://www.w3.org/2000/svg" xmlns:svg="http://www.w3.org/2000/svg" xmlns:xlink="http://www.w3.org/1999/xlink">
 <title>aCross Game Engine - Icon Full</title>
 <defs>
  <symbol id="svg_4" viewBox="15 30 66 36" xmlns="http://www.w3.org/2000/svg" xmlns:xlink="http://www.w3.org/1999/xlink">
   <g id="svg_2">
    <path d="m31.8,30.4c-1.9,0 -3.9,0.3 -5.6,0.8c-6.3,2.2 -10.7,8.7 -10.7,15.4c0,6.5 4.3,13 10.7,15.2c2.6,1.1 5.8,1.1 8.6,1.1c5.3,0 8.6,-5.7 13.2,-5.4c4.6,-0.3 7.9,5.4 13.2,5.4c2.8,0 6,0 8.6,-1.1c6.3,-2.2 10.7,-8.7 10.7,-15.2c0,-6.8 -4.3,-13.3 -10.7,-15.4c-1.7,-0.5 -3.7,-0.8 -5.6,-0.8l-3,0l-26.4,0l-2.1,0l-0.9,0z" fill="#2d2d2d" id="svg_3"/>
   </g>
  </symbol>
  <symbol id="svg_13" viewBox="15 30 66 36" xmlns="http://www.w3.org/2000/svg" xmlns:xlink="http://www.w3.org/1999/xlink">
   <g id="svg_7">
    <path d="m31.8,38.5c-1.5,0 -2.7,1.1 -2.7,2.7l0,2.7l-2.7,0c-1.5,0 -2.7,1.1 -2.7,2.7c0,1.4 1.2,2.7 2.7,2.7l2.6,0l0,2.7c0,1.4 1.2,2.7 2.7,2.7c1.5,0 2.7,-1.4 2.7,-2.7l0,-2.7l2.7,0c1.5,0 2.7,-1.4 2.7,-2.7c0,-1.6 -1.2,-2.7 -2.7,-2.7l-2.7,0l0,-2.7c0.1,-1.6 -1.2,-2.7 -2.6,-2.7z" fill="#525252" id="svg_12"/>
    <circle cx="58.8" cy="46.6" fill="#525252" id="svg_11" r="2.7"/>
    <circle cx="64.2" cy="52.1" fill="#525252" id="svg_10" r="2.7"/>
    <circle cx="64.2" cy="41.2" fill="#525252" id="svg_9" r="2.7"/>
    <circle cx="69.7" cy="46.6" fill="#525252" id="svg_8" r="2.7"/>
   </g>
  </symbol>
  <symbol id="svg_18" viewBox="15 30 66 36" xmlns="http://www.w3.org/2000/svg" xmlns:xlink="http://www.w3.org/1999/xlink">
   <g id="svg_16">
    <path d="m46.6,46.6c-0.7,0 -1.4,0.6 -1.4,1.4s0.6,1.4 1.4,1.4l2.7,0c0.7,0 1.4,-0.6 1.4,-1.4s-0.6,-1.4 -1.4,-1.4l-2.7,0z" fill="#525252" id="svg_17"/>
   </g>
  </symbol>
 </defs>
 <g class="layer">
  <title>aCross Game Engine - Logo Glyph</title>
  <path d="m1003,420.68l228.64,-230.68l82.66,314.1l-311.3,-83.41z" fill="#2d2d2d" id="svg_6" stroke="#000000"/>
  <path d="m125,505l82.66,-314.1l228.64,230.68l-311.3,83.41z" fill="#2d2d2d" id="svg_1" stroke="#000000" transform="matrix(1 0 0 1 0 0)"/>
  <use id="svg_5" transform="matrix(1 0 0 1 0 0) matrix(0.971866 0 0 0.971866 1386.45 1092.33)" x="-1405.74" xlink:href="#svg_4" y="-1073.66"/>
  <use id="svg_14" transform="matrix(1.02455 0 0 1.02455 1387.99 960.774)" x="-1373.07" xlink:href="#svg_13" y="-977.61"/>
  <use fill="#c45858" id="svg_19" transform="matrix(1.34209 0 0 1.34209 273.343 257.996)" x="-383.47" xlink:href="#svg_18" y="-318.15"/>
 </g>
</svg>