<?xml version="1.0"?>
 <!-- 
Copyright (c) 2022 - Ehan Ahamed and contributors 
Licensed under The Universal Permissive License (UPL), Version 1.0 
(https://github.com/aCross-Game-Engine/aCross/blob/main/LICENSE.txt) 
-->
<svg width="1575" height="1450" xmlns="http://www.w3.org/2000/svg" xmlns:svg="http://www.w3.org/2000/svg" xmlns:xlink="http://www.w3.org/1999/xlink">
 <defs>
  <!--
  This file uses Bootstrap Icons
  Copyright (c) 2019-2021 The Bootstrap Authors
  Licensed under the MIT License
  (https://github.com/twbs/icons/blob/main/LICENSE.md) 
  -->
  <symbol class="bi bi-controller" fill="#3360a9" height="16" id="svg_1" viewBox="0 0 16 16" width="16" xmlns="http://www.w3.org/2000/svg">
   <path d="m11.5,6.03a0.5,0.5 0 1 1 -1,0a0.5,0.5 0 0 1 1,0zm-1.5,1.5a0.5,0.5 0 1 0 0,-1a0.5,0.5 0 0 0 0,1zm2.5,-0.5a0.5,0.5 0 1 1 -1,0a0.5,0.5 0 0 1 1,0zm-1.5,1.5a0.5,0.5 0 1 0 0,-1a0.5,0.5 0 0 0 0,1zm-6.5,-3l1,0l0,1l1,0l0,1l-1,0l0,1l-1,0l0,-1l-1,0l0,-1l1,0l0,-1z" id="svg_12"/>
   <path d="m3.05,3.26a0.5,0.5 0 0 1 0.36,-0.61l1.93,-0.52a0.5,0.5 0 0 1 0.62,0.39c0.65,-0.08 1.35,-0.12 2.04,-0.12c0.72,0 1.44,0.04 2.12,0.13a0.5,0.5 0 0 1 0.62,-0.4l1.93,0.52a0.5,0.5 0 0 1 0.31,0.73c0.14,0.09 0.27,0.19 0.37,0.29c0.41,0.41 0.78,1.05 1.1,1.77c0.32,0.74 0.6,1.6 0.8,2.47c0.21,0.88 0.34,1.78 0.37,2.61c0.02,0.81 -0.06,1.6 -0.33,2.21a1.42,1.42 0 0 1 -1.45,0.83c-0.63,-0.07 -1.11,-0.4 -1.51,-0.78c-0.24,-0.23 -0.49,-0.52 -0.74,-0.8c-0.12,-0.15 -0.25,-0.3 -0.37,-0.43c-0.72,-0.8 -1.59,-1.52 -3.22,-1.52c-1.63,0 -2.5,0.72 -3.22,1.52c-0.12,0.13 -0.25,0.28 -0.37,0.43c-0.25,0.28 -0.5,0.57 -0.74,0.8c-0.4,0.38 -0.88,0.71 -1.51,0.78a1.42,1.42 0 0 1 -1.45,-0.83c-0.27,-0.61 -0.35,-1.4 -0.33,-2.21c0.03,-0.83 0.16,-1.73 0.37,-2.61c0.2,-0.87 0.48,-1.73 0.8,-2.47c0.32,-0.72 0.69,-1.36 1.1,-1.77a2.34,2.34 0 0 1 0.43,-0.33a0.5,0.5 0 0 1 -0.03,-0.08zm2.04,0.41c-0.88,0.19 -1.47,0.44 -1.74,0.71c-0.27,0.28 -0.58,0.78 -0.88,1.46a13.75,13.75 0 0 0 -0.75,2.3a12.35,12.35 0 0 0 -0.34,2.41c-0.02,0.75 0.06,1.36 0.24,1.77a0.42,0.42 0 0 0 0.43,0.24c0.33,-0.03 0.61,-0.2 0.93,-0.5c0.21,-0.2 0.4,-0.42 0.61,-0.67c0.14,-0.16 0.28,-0.33 0.45,-0.51c0.82,-0.91 1.94,-1.85 3.96,-1.85s3.14,0.94 3.96,1.85c0.17,0.18 0.31,0.35 0.44,0.51c0.22,0.25 0.41,0.47 0.62,0.67c0.32,0.3 0.6,0.47 0.93,0.5a0.42,0.42 0 0 0 0.43,-0.24c0.17,-0.41 0.26,-1.02 0.24,-1.77a12.35,12.35 0 0 0 -0.34,-2.41a13.75,13.75 0 0 0 -0.75,-2.3c-0.3,-0.68 -0.61,-1.19 -0.88,-1.46c-0.27,-0.27 -0.86,-0.52 -1.74,-0.71c-0.85,-0.18 -1.87,-0.27 -2.91,-0.27c-1.04,0 -2.06,0.09 -2.91,0.27z" id="svg_14"/>
  </symbol>
  <symbol class="bi bi-gear" fill="#3360a9" height="16" id="svg_3" viewBox="0 0 16 16" width="16" xmlns="http://www.w3.org/2000/svg">
   <path d="m8,4.75a3.25,3.25 0 1 0 0,6.5a3.25,3.25 0 0 0 0,-6.5zm-2.25,3.25a2.25,2.25 0 1 1 4.5,0a2.25,2.25 0 0 1 -4.5,0z" id="svg_27"/>
   <path d="m9.8,1.34c-0.53,-1.79 -3.07,-1.79 -3.6,0l-0.09,0.32a0.87,0.87 0 0 1 -1.26,0.52l-0.29,-0.16c-1.64,-0.89 -3.43,0.9 -2.54,2.54l0.16,0.29a0.87,0.87 0 0 1 -0.52,1.26l-0.32,0.09c-1.79,0.53 -1.79,3.07 0,3.6l0.32,0.09a0.87,0.87 0 0 1 0.52,1.25l-0.16,0.3c-0.89,1.64 0.9,3.43 2.54,2.54l0.29,-0.16a0.87,0.87 0 0 1 1.26,0.52l0.09,0.32c0.53,1.79 3.07,1.79 3.6,0l0.09,-0.32a0.87,0.87 0 0 1 1.25,-0.52l0.3,0.16c1.64,0.89 3.43,-0.9 2.54,-2.54l-0.16,-0.3a0.87,0.87 0 0 1 0.52,-1.25l0.32,-0.09c1.79,-0.53 1.79,-3.07 0,-3.6l-0.32,-0.09a0.87,0.87 0 0 1 -0.52,-1.25l0.16,-0.3c0.89,-1.64 -0.9,-3.43 -2.54,-2.54l-0.3,0.16a0.87,0.87 0 0 1 -1.25,-0.52l-0.09,-0.32zm-2.64,0.29c0.25,-0.84 1.43,-0.84 1.68,0l0.09,0.31a1.87,1.87 0 0 0 2.69,1.12l0.29,-0.16c0.77,-0.42 1.6,0.42 1.19,1.18l-0.16,0.3a1.87,1.87 0 0 0 1.12,2.69l0.31,0.09c0.84,0.25 0.84,1.43 0,1.68l-0.32,0.09a1.87,1.87 0 0 0 -1.11,2.69l0.16,0.29c0.41,0.77 -0.42,1.6 -1.19,1.19l-0.29,-0.16a1.87,1.87 0 0 0 -2.69,1.12l-0.09,0.31c-0.25,0.84 -1.43,0.84 -1.68,0l-0.09,-0.32a1.87,1.87 0 0 0 -2.69,-1.11l-0.3,0.16c-0.76,0.41 -1.6,-0.42 -1.18,-1.19l0.16,-0.29a1.87,1.87 0 0 0 -1.11,-2.69l-0.32,-0.09c-0.84,-0.25 -0.84,-1.43 0,-1.68l0.32,-0.09a1.87,1.87 0 0 0 1.11,-2.69l-0.16,-0.3c-0.42,-0.76 0.42,-1.6 1.18,-1.18l0.3,0.16a1.87,1.87 0 0 0 2.69,-1.12l0.09,-0.31z" id="svg_28"/>
  </symbol>
  <symbol class="bi bi-dpad" fill="#3360a9" height="16" id="svg_5" viewBox="0 0 16 16" width="16" xmlns="http://www.w3.org/2000/svg">
   <path d="m7.79,2.34l-0.8,1.28a0.25,0.25 0 0 0 0.21,0.38l1.6,0a0.25,0.25 0 0 0 0.21,-0.38l-0.8,-1.28a0.25,0.25 0 0 0 -0.42,0zm0,11.32l-0.8,-1.28a0.25,0.25 0 0 1 0.21,-0.38l1.6,0a0.25,0.25 0 0 1 0.21,0.38l-0.8,1.28a0.25,0.25 0 0 1 -0.42,0zm-4.17,-4.65l-1.28,-0.8a0.25,0.25 0 0 1 0,-0.42l1.28,-0.8a0.25,0.25 0 0 1 0.38,0.21l0,1.6a0.25,0.25 0 0 1 -0.38,0.21zm10.04,-0.8l-1.28,0.8a0.25,0.25 0 0 1 -0.38,-0.21l0,-1.6a0.25,0.25 0 0 1 0.38,-0.21l1.28,0.8a0.25,0.25 0 0 1 0,0.42z" id="svg_29"/>
   <path d="m6.5,0a1.5,1.5 0 0 0 -1.5,1.5l0,3a0.5,0.5 0 0 1 -0.5,0.5l-3,0a1.5,1.5 0 0 0 -1.5,1.5l0,3a1.5,1.5 0 0 0 1.5,1.5l3,0a0.5,0.5 0 0 1 0.5,0.5l0,3a1.5,1.5 0 0 0 1.5,1.5l3,0a1.5,1.5 0 0 0 1.5,-1.5l0,-3a0.5,0.5 0 0 1 0.5,-0.5l3,0a1.5,1.5 0 0 0 1.5,-1.5l0,-3a1.5,1.5 0 0 0 -1.5,-1.5l-3,0a0.5,0.5 0 0 1 -0.5,-0.5l0,-3a1.5,1.5 0 0 0 -1.5,-1.5l-3,0zm-0.5,1.5a0.5,0.5 0 0 1 0.5,-0.5l3,0a0.5,0.5 0 0 1 0.5,0.5l0,3a1.5,1.5 0 0 0 1.5,1.5l3,0a0.5,0.5 0 0 1 0.5,0.5l0,3a0.5,0.5 0 0 1 -0.5,0.5l-3,0a1.5,1.5 0 0 0 -1.5,1.5l0,3a0.5,0.5 0 0 1 -0.5,0.5l-3,0a0.5,0.5 0 0 1 -0.5,-0.5l0,-3a1.5,1.5 0 0 0 -1.5,-1.5l-3,0a0.5,0.5 0 0 1 -0.5,-0.5l0,-3a0.5,0.5 0 0 1 0.5,-0.5l3,0a1.5,1.5 0 0 0 1.5,-1.5l0,-3z" id="svg_30"/>
  </symbol>
  <symbol class="bi bi-code-slash" fill="#3360a9" height="16" id="svg_7" viewBox="0 0 16 16" width="16" xmlns="http://www.w3.org/2000/svg">
   <path d="m10.48,1.65a0.5,0.5 0 1 0 -0.96,-0.3l-4,13a0.5,0.5 0 0 0 0.96,0.3l4,-13zm-5.63,2.5a0.5,0.5 0 0 1 0,0.7l-3.14,3.15l3.14,3.15a0.5,0.5 0 0 1 -0.7,0.7l-3.5,-3.5a0.5,0.5 0 0 1 0,-0.7l3.5,-3.5a0.5,0.5 0 0 1 0.7,0zm6.3,0a0.5,0.5 0 0 0 0,0.7l3.14,3.15l-3.14,3.15a0.5,0.5 0 0 0 0.7,0.7l3.5,-3.5a0.5,0.5 0 0 0 0,-0.7l-3.5,-3.5a0.5,0.5 0 0 0 -0.7,0z" id="svg_31"/>
  </symbol>
  <symbol class="bi bi-display" fill="#3360a9" height="16" id="svg_9" viewBox="0 0 16 16" width="16" xmlns="http://www.w3.org/2000/svg">
   <path d="m0,4s0,-2 2,-2l12,0s2,0 2,2l0,6s0,2 -2,2l-4,0c0,0.67 0.08,1.17 0.25,1.5l0.75,0a0.5,0.5 0 0 1 0,1l-6,0a0.5,0.5 0 0 1 0,-1l0.75,0c0.17,-0.33 0.25,-0.83 0.25,-1.5l-4,0s-2,0 -2,-2l0,-6zm1.4,-0.85a0.76,0.76 0 0 0 -0.26,0.3a1.46,1.46 0 0 0 -0.14,0.56l0,5.99c0,0.32 0.08,0.5 0.15,0.6c0.07,0.11 0.16,0.19 0.3,0.26a1.46,1.46 0 0 0 0.54,0.14l0.02,0l11.99,0c0.32,0 0.5,-0.08 0.6,-0.14a0.76,0.76 0 0 0 0.26,-0.31a1.46,1.46 0 0 0 0.14,-0.53l0,-0.03l0,-5.99c0,-0.33 -0.08,-0.5 -0.14,-0.6a0.76,0.76 0 0 0 -0.31,-0.26a1.46,1.46 0 0 0 -0.56,-0.14l-11.99,0c-0.32,0 -0.5,0.08 -0.6,0.15z" id="svg_32"/>
  </symbol>
  <symbol class="bi bi-phone" fill="#3360a9" height="16" id="svg_11" viewBox="0 0 16 16" width="16" xmlns="http://www.w3.org/2000/svg">
   <path d="m11,1a1,1 0 0 1 1,1l0,12a1,1 0 0 1 -1,1l-6,0a1,1 0 0 1 -1,-1l0,-12a1,1 0 0 1 1,-1l6,0zm-6,-1a2,2 0 0 0 -2,2l0,12a2,2 0 0 0 2,2l6,0a2,2 0 0 0 2,-2l0,-12a2,2 0 0 0 -2,-2l-6,0z" id="svg_33"/>
   <path d="m8,14a1,1 0 1 0 0,-2a1,1 0 0 0 0,2z" id="svg_34"/>
  </symbol>
  <symbol class="bi bi-joystick" fill="#3360a9" height="16" id="svg_13" viewBox="0 0 16 16" width="16" xmlns="http://www.w3.org/2000/svg">
   <path d="m10,2a2,2 0 0 1 -1.5,1.94l0,5.08c0.86,0.09 1.5,0.38 1.5,0.73c0,0.41 -0.89,0.75 -2,0.75s-2,-0.34 -2,-0.75c0,-0.35 0.64,-0.64 1.5,-0.73l0,-5.08a2,2 0 1 1 2.5,-1.94z" id="svg_35"/>
   <path d="m0,9.66l0,1.72a1,1 0 0 0 0.55,0.9l6.56,3.27a2,2 0 0 0 1.78,0l6.56,-3.27a1,1 0 0 0 0.55,-0.9l0,-1.72c0,-0.1 -0.06,-0.19 -0.15,-0.23l-6.35,-2.72l0,1l5.23,2.18a0.13,0.13 0 0 1 0,0.23l-5.94,2.54a2,2 0 0 1 -1.58,0l-5.94,-2.54a0.13,0.13 0 0 1 0,-0.23l5.23,-2.18l-0.01,-0.99l-6.34,2.72a0.25,0.25 0 0 0 -0.15,0.23l0,-0.01z" id="svg_36"/>
  </symbol>
  <symbol class="bi bi-github" fill="#3360a9" height="16" id="svg_17" viewBox="0 0 16 16" width="16" xmlns="http://www.w3.org/2000/svg">
   <path d="m8,0c-4.42,0 -8,3.58 -8,8c0,3.54 2.29,6.53 5.47,7.59c0.4,0.07 0.55,-0.17 0.55,-0.38c0,-0.19 -0.01,-0.82 -0.01,-1.49c-2.01,0.37 -2.53,-0.49 -2.69,-0.94c-0.09,-0.23 -0.48,-0.94 -0.82,-1.13c-0.28,-0.15 -0.68,-0.52 -0.01,-0.53c0.63,-0.01 1.08,0.58 1.23,0.82c0.72,1.21 1.87,0.87 2.33,0.66c0.07,-0.52 0.28,-0.87 0.51,-1.07c-1.78,-0.2 -3.64,-0.89 -3.64,-3.95c0,-0.87 0.31,-1.59 0.82,-2.15c-0.08,-0.2 -0.36,-1.02 0.08,-2.12c0,0 0.67,-0.21 2.2,0.82c0.64,-0.18 1.32,-0.27 2,-0.27c0.68,0 1.36,0.09 2,0.27c1.53,-1.04 2.2,-0.82 2.2,-0.82c0.44,1.1 0.16,1.92 0.08,2.12c0.51,0.56 0.82,1.27 0.82,2.15c0,3.07 -1.87,3.75 -3.65,3.95c0.29,0.25 0.54,0.73 0.54,1.48c0,1.07 -0.01,1.93 -0.01,2.2c0,0.21 0.15,0.46 0.55,0.38a8.01,8.01 0 0 0 5.45,-7.59c0,-4.42 -3.58,-8 -8,-8z" id="svg_37"/>
  </symbol>
 </defs>
 <g class="layer">
  <title>Layer 1</title>
  <rect fill="#2d5595" height="100%" id="svg_38" width="100%"/>
  <use id="svg_2" transform="matrix(18 0 0 18 0 0)" x="1" xlink:href="#svg_1" y="0"/>
  <use id="svg_4" transform="matrix(18 0 0 18 0 0)" x="1" xlink:href="#svg_3" y="20"/>
  <use id="svg_6" transform="matrix(1 0 0 1 0 0) matrix(14.9108 0 0 14.9108 61.4989 2.8032)" x="25" xlink:href="#svg_5" y="1"/>
  <use id="svg_8" transform="matrix(18 0 0 18 0 0)" x="23.52" xlink:href="#svg_7" y="20"/>
  <use id="svg_10" transform="matrix(18 0 0 18 0 0)" x="45" xlink:href="#svg_9" y="0"/>
  <use id="svg_15" transform="matrix(18 0 0 18 0 0)" x="1" xlink:href="#svg_9" y="40"/>
  <use id="svg_16" transform="matrix(18 0 0 18 0 0)" x="45" xlink:href="#svg_1" y="40"/>
  <use id="svg_18" transform="matrix(18 0 0 18 0 0)" x="24.07" xlink:href="#svg_17" y="40"/>
  <use id="svg_19" transform="matrix(18 0 0 18 0 0)" x="1" xlink:href="#svg_11" y="60"/>
  <use id="svg_20" transform="matrix(18 0 0 18 0 0)" x="24" xlink:href="#svg_3" y="60"/>
  <use id="svg_21" transform="matrix(18 0 0 18 0 0)" x="67.5" xlink:href="#svg_3" y="40"/>
  <use id="svg_22" transform="matrix(1 0 0 1 0 0) matrix(18 0 0 18 0 0)" x="67.5" xlink:href="#svg_17" y="60"/>
  <use id="svg_23" transform="matrix(18 0 0 18 0 0)" x="45" xlink:href="#svg_11" y="20"/>
  <use id="svg_24" transform="matrix(1 0 0 1 0 0) matrix(18 0 0 18 0 0)" x="67.5" xlink:href="#svg_7" y="1"/>
  <use id="svg_25" transform="matrix(18 0 0 18 0 0)" x="45" xlink:href="#svg_13" y="60"/>
  <use id="svg_26" transform="matrix(18 0 0 18 0 0)" x="67.5" xlink:href="#svg_13" y="20"/>
 </g>
</svg>